<svg width="88" height="80" viewBox="0 0 88 80" fill="none" xmlns="http://www.w3.org/2000/svg">
<g clip-path="url(#clip0)">
<path d="M43.6572 70.3736C26.8106 70.3736 13.0085 56.5039 13.0085 39.6572C13.0085 35.8684 13.6851 32.2826 14.9706 28.8997L32.8997 64.9611C33.1027 65.4347 33.441 65.8406 33.9823 65.8406C34.5235 65.8406 34.8618 65.4347 35.0648 64.9611L43.319 46.4906C43.3866 46.2877 43.5219 46.0847 43.7249 46.0847C43.9279 46.0847 43.9955 46.2877 44.1308 46.4906L52.385 64.9611C52.588 65.4347 52.9263 65.8406 53.4675 65.8406C54.0088 65.8406 54.3471 65.4347 54.5501 64.9611L72.4792 28.8997C73.7647 32.2826 74.4413 35.8684 74.4413 39.6572C74.306 56.5039 60.5039 70.3736 43.6572 70.3736ZM43.6572 32.6885C43.4543 32.6885 43.3866 32.4856 43.2513 32.2826L33.644 10.6323C36.7562 9.4821 40.1391 8.87319 43.6572 8.87319C47.1754 8.87319 50.5583 9.4821 53.6705 10.6323L44.0632 32.2826C43.9279 32.5532 43.8602 32.6885 43.6572 32.6885ZM33.8469 54.9478C33.644 54.9478 33.5763 54.7448 33.441 54.5418L17.8798 23.1489C20.6538 18.8865 24.3749 15.3006 28.908 12.7973L40.1391 37.7628C40.2744 38.1688 40.6127 38.3041 40.951 38.3041H46.3635C46.7695 38.3041 47.0401 38.2364 47.2431 37.7628L58.4742 12.7973C62.9396 15.3006 66.7284 18.8865 69.5023 23.1489L53.8058 54.5418C53.7382 54.7448 53.6029 54.9478 53.3999 54.9478C53.1969 54.9478 53.1293 54.7448 52.9939 54.5418L47.1078 41.1457C46.9048 40.6721 46.6342 40.6045 46.2282 40.6045H40.8156C40.4097 40.6045 40.1391 40.6721 39.9361 41.1457L34.2529 54.5418C34.1852 54.7448 34.0499 54.9478 33.8469 54.9478ZM43.6572 73.4859C62.3983 73.4859 77.4859 58.3983 77.4859 39.6572C77.4859 20.9162 62.3983 5.82861 43.6572 5.82861C24.9162 5.82861 9.82861 20.9162 9.82861 39.6572C9.82861 58.3983 24.9162 73.4859 43.6572 73.4859Z" fill="#011D51"/>
</g>
<defs>
<clipPath id="clip0">
<rect width="88" height="80" fill="white"/>
</clipPath>
</defs>
</svg>
